<?xml version="1.0" encoding="UTF-8" standalone="no"?>
<svg width="80px" height="34px" viewBox="0 0 80 34" version="1.1" xmlns="http://www.w3.org/2000/svg" xmlns:xlink="http://www.w3.org/1999/xlink">
    <!-- Generator: Sketch 39.1 (31720) - http://www.bohemiancoding.com/sketch -->
    <title>3x3 logo</title>
    <desc>Created with Sketch.</desc>
    <defs></defs>
    <g id="Symbols" stroke="none" stroke-width="1" fill="none" fill-rule="evenodd">
        <g id="Footer-/Large" transform="translate(-48.000000, -31.000000)" fill="#FFFFFF">
            <g id="Footer">
                <path d="M73.1630239,31 L71.2916803,38.9586102 L74.4342611,38.9586102 L91.2321824,65 L101.45384,65 L103.325573,57.0398331 L100.183576,57.0398331 L83.3844868,31 L73.1630239,31 Z M111.956481,31.0484522 L110.108877,38.9119093 L114.138191,38.9119093 L113.023013,43.4961855 L107.796794,43.4961855 L105.862599,51.8727687 L111.142329,51.8727687 L109.939197,56.992743 L105.848588,56.992743 L103.977245,64.9513532 L115.096922,64.9513532 L121.547871,60.0390033 L123.479731,51.9058485 L120.04527,47.7772951 L125.290364,43.5637072 L127.090878,36.011784 L122.961546,31.0484522 L111.956481,31.0484522 Z M59.9929834,31.0484522 L53.5416445,35.9609967 L51.6907325,43.6323965 L55.1251939,47.7611444 L49.8797109,51.9735648 L48,59.9878269 L52.1293317,64.9509641 L63.1338129,64.9509641 L64.9810278,57.0882853 L60.9513246,57.0882853 L62.1493971,52.0414757 L67.3748376,52.0414757 L69.3088383,43.6650871 L64.0279404,43.6650871 L65.1509023,39.007257 L68.7301364,39.007257 L70.6003125,31.0484522 L59.9929834,31.0484522 Z M99.2024678,31.0970989 L91.0008184,38.3818542 L96.1110634,46.3066062 L104.382375,38.9586102 L107.577883,38.9586102 L109.424515,31.0970989 L99.2024678,31.0970989 Z M70.2346834,57.0398331 L67.4861414,57.0398331 L65.638732,64.9032902 L75.4145906,64.9032902 L83.5767388,57.5959629 L78.464548,49.6716 L70.2346834,57.0398331 Z" id="3x3-logo"></path>
            </g>
        </g>
    </g>
</svg>